<svg xmlns="http://www.w3.org/2000/svg" aria-hidden="true" style="position:absolute;width:0;height:0;overflow:hidden">
  <defs>
    <symbol id="icon-group" viewBox="0 0 33 32">
      <path d="M3.111 29.333a10.663 10.663 0 0 1 10.667-10.667 10.666 10.666 0 0 1 10.666 10.667h-2.667a8 8 0 1 0-16 0H3.11zm10.667-12c-4.42 0-8-3.58-8-8s3.58-8 8-8 8 3.58 8 8-3.58 8-8 8zm0-2.666c2.947 0 5.333-2.387 5.333-5.333s-2.387-5.333-5.333-5.333c-2.947 0-5.333 2.387-5.333 5.333s2.387 5.333 5.333 5.333zm11.045 4.937a10.665 10.665 0 0 1 6.288 9.729h-2.667a7.993 7.993 0 0 0-4.716-7.298l1.093-2.432h.001zm-.917-15.053a7.335 7.335 0 0 1-2.128 14.087v-2.684a4.663 4.663 0 0 0 3.948-3.894 4.668 4.668 0 0 0-2.56-4.919l.74-2.591z"/>
    </symbol>
    <symbol id="icon-search" viewBox="0 0 32 32">
      <path d="m24.041 22.156 5.711 5.709-1.887 1.887-5.709-5.711a11.945 11.945 0 0 1-7.489 2.625c-6.624 0-12-5.376-12-12s5.376-12 12-12 12 5.376 12 12a11.943 11.943 0 0 1-2.625 7.489zm-2.674-.989a9.302 9.302 0 0 0 2.633-6.5 9.33 9.33 0 0 0-9.333-9.333 9.33 9.33 0 0 0-9.333 9.333A9.33 9.33 0 0 0 14.667 24a9.302 9.302 0 0 0 6.5-2.633l.2-.2z"/>
    </symbol>
    <symbol id="icon-facebook" viewBox="0 0 31 32">
      <path d="M15.515 2.989c-7.141 0-12.929 5.788-12.929 12.929 0 6.453 4.728 11.802 10.91 12.773v-9.036h-3.284v-3.737h3.284V13.07c0-3.24 1.929-5.029 4.883-5.029 1.415 0 2.894.252 2.894.252v3.181h-1.629c-1.607 0-2.107.997-2.107 2.019v2.426h3.585l-.573 3.737h-3.013v9.036c6.18-.97 10.908-6.321 10.908-12.773 0-7.141-5.788-12.929-12.929-12.929z"/>
    </symbol>
    <symbol id="icon-instagram" viewBox="0 0 31 32">
      <path d="M15.515 2.989c3.513 0 3.951.013 5.329.078 1.377.065 2.314.281 3.139.601a6.297 6.297 0 0 1 2.291 1.491 6.354 6.354 0 0 1 1.491 2.291c.319.824.537 1.762.601 3.139.061 1.378.078 1.817.078 5.329s-.013 3.951-.078 5.329c-.065 1.377-.282 2.314-.601 3.139a6.315 6.315 0 0 1-1.491 2.291 6.354 6.354 0 0 1-2.291 1.491c-.824.319-1.762.537-3.139.601-1.378.061-1.817.078-5.329.078s-3.951-.013-5.329-.078c-1.377-.065-2.314-.282-3.139-.601a6.328 6.328 0 0 1-2.291-1.491 6.34 6.34 0 0 1-1.491-2.291c-.321-.824-.537-1.762-.601-3.139-.061-1.378-.078-1.817-.078-5.329s.013-3.951.078-5.329c.065-1.378.281-2.314.601-3.139a6.306 6.306 0 0 1 1.491-2.291 6.328 6.328 0 0 1 2.291-1.491c.825-.321 1.761-.537 3.139-.601 1.378-.061 1.817-.078 5.329-.078zm0 6.465a6.464 6.464 0 1 0-.001 12.928 6.464 6.464 0 0 0 .001-12.928zm8.404-.323a1.616 1.616 0 1 0-3.232-.001 1.616 1.616 0 0 0 3.232.001zm-8.404 2.909a3.882 3.882 0 0 1 3.879 3.879 3.882 3.882 0 0 1-3.879 3.879 3.882 3.882 0 0 1-3.879-3.879 3.882 3.882 0 0 1 3.879-3.879z"/>
    </symbol>
    <symbol id="icon-twitter" viewBox="0 0 31 32">
      <path d="M28.654 7.716c-.987.437-2.034.723-3.106.851a5.426 5.426 0 0 0 2.379-2.992 10.802 10.802 0 0 1-3.434 1.312 5.409 5.409 0 0 0-8.879 1.466 5.41 5.41 0 0 0-.335 3.464 15.345 15.345 0 0 1-11.145-5.65 5.388 5.388 0 0 0-.732 2.719c0 1.875.954 3.531 2.405 4.501a5.393 5.393 0 0 1-2.449-.676v.067a5.405 5.405 0 0 0 4.338 5.302 5.44 5.44 0 0 1-2.444.093 5.411 5.411 0 0 0 5.051 3.756 10.852 10.852 0 0 1-8.004 2.239 15.3 15.3 0 0 0 8.288 2.431c9.946 0 15.386-8.24 15.386-15.386 0-.233-.006-.468-.017-.698a10.979 10.979 0 0 0 2.698-2.799l-.001-.001z"/>
    </symbol>
    <symbol id="icon-arrow" viewBox="0 0 32 32">
      <path d="m21.563 14.667-7.152-7.152 1.885-1.885 10.371 10.371-10.371 10.371-1.885-1.885 7.152-7.152H5.334v-2.667h16.229z"/>
    </symbol>
    <symbol id="icon-calendar-tips" viewBox="0 0 32 32">
      <path d="M22.667 5.333H28a1.33 1.33 0 0 1 1.333 1.334V28A1.333 1.333 0 0 1 28 29.334H4A1.334 1.334 0 0 1 2.666 28V6.667A1.335 1.335 0 0 1 4 5.333h5.333V2.666H12v2.667h8V2.666h2.667v2.667zm4 10.667H5.334v10.667h21.333V16zM20 8h-8v2.667H9.333V8h-4v5.333h21.333V8h-4v2.667h-2.667V8zM8 18.666h2.667v2.667H8v-2.667zm6.667 0h2.667v2.667h-2.667v-2.667zm6.666 0H24v2.667h-2.667v-2.667z"/>
    </symbol>
    <symbol id="icon-chat" viewBox="0 0 32 32">
      <path d="m9.721 27.765-7.055 1.568 1.568-7.055a13.277 13.277 0 0 1-1.568-6.279c0-7.364 5.969-13.333 13.333-13.333s13.333 5.969 13.333 13.333-5.969 13.333-13.333 13.333a13.277 13.277 0 0 1-6.279-1.568zm.387-2.817.871.467A10.61 10.61 0 0 0 16 26.667 10.666 10.666 0 1 0 5.334 16c0 1.779.433 3.491 1.253 5.021l.465.871-.873 3.929 3.929-.873z"/>
    </symbol>
    <symbol id="icon-five-stars" viewBox="0 0 176 32">
      <path d="m16 24.347-9.404 5.264 2.1-10.571-7.913-7.317 10.703-1.269L16.001.667l4.515 9.787 10.703 1.269-7.913 7.317 2.1 10.571-9.404-5.264zM52 24.347l-9.404 5.264 2.1-10.571-7.913-7.317 10.703-1.269L52.001.667l4.515 9.787 10.703 1.269-7.913 7.317 2.1 10.571-9.404-5.264zM88 24.347l-9.404 5.264 2.1-10.571-7.913-7.317 10.703-1.269L88.001.667l4.515 9.787 10.703 1.269-7.913 7.317 2.1 10.571-9.404-5.264zM124 24.347l-9.404 5.264 2.1-10.571-7.913-7.317 10.703-1.269 4.515-9.787 4.515 9.787 10.703 1.269-7.913 7.317 2.1 10.571-9.404-5.264zM160 24.347l-9.404 5.264 2.1-10.571-7.913-7.317 10.703-1.269 4.515-9.787 4.515 9.787 10.703 1.269-7.913 7.317 2.1 10.571-9.404-5.264z"/>
    </symbol>
    <symbol id="icon-four-stars" viewBox="0 0 176 32">
      <path d="m16 24.347-9.404 5.264 2.1-10.571-7.913-7.317 10.703-1.269L16.001.667l4.515 9.787 10.703 1.269-7.913 7.317 2.1 10.571-9.404-5.264zM52 24.347l-9.404 5.264 2.1-10.571-7.913-7.317 10.703-1.269L52.001.667l4.515 9.787 10.703 1.269-7.913 7.317 2.1 10.571-9.404-5.264zM88 24.347l-9.404 5.264 2.1-10.571-7.913-7.317 10.703-1.269L88.001.667l4.515 9.787 10.703 1.269-7.913 7.317 2.1 10.571-9.404-5.264zM124 24.347l-9.404 5.264 2.1-10.571-7.913-7.317 10.703-1.269 4.515-9.787 4.515 9.787 10.703 1.269-7.913 7.317 2.1 10.571-9.404-5.264zM160 24.347l-9.404 5.264 2.1-10.571-7.913-7.317 10.703-1.269 4.515-9.787 4.515 9.787 10.703 1.269-7.913 7.317 2.1 10.571-9.404-5.264zm0-3.056 5.663 3.169-1.265-6.364 4.764-4.407-6.444-.764-2.717-5.892-2.717 5.893-6.444.763 4.764 4.407-1.265 6.364 5.663-3.169z"/>
    </symbol>
    <symbol id="icon-three-stars" viewBox="0 0 176 32">
      <path d="m16 24.347-9.404 5.264 2.1-10.571-7.913-7.317 10.703-1.269L16.001.667l4.515 9.787 10.703 1.269-7.913 7.317 2.1 10.571-9.404-5.264zM52 24.347l-9.404 5.264 2.1-10.571-7.913-7.317 10.703-1.269L52.001.667l4.515 9.787 10.703 1.269-7.913 7.317 2.1 10.571-9.404-5.264zM88 24.347l-9.404 5.264 2.1-10.571-7.913-7.317 10.703-1.269L88.001.667l4.515 9.787 10.703 1.269-7.913 7.317 2.1 10.571-9.404-5.264zM124 24.347l-9.404 5.264 2.1-10.571-7.913-7.317 10.703-1.269 4.515-9.787 4.515 9.787 10.703 1.269-7.913 7.317 2.1 10.571-9.404-5.264zm0-3.056 5.663 3.169-1.265-6.364 4.764-4.407-6.444-.764-2.717-5.892-2.717 5.893-6.444.763 4.764 4.407-1.265 6.364 5.663-3.169zM160 24.347l-9.404 5.264 2.1-10.571-7.913-7.317 10.703-1.269 4.515-9.787 4.515 9.787 10.703 1.269-7.913 7.317 2.1 10.571-9.404-5.264zm0-3.056 5.663 3.169-1.265-6.364 4.764-4.407-6.444-.764-2.717-5.892-2.717 5.893-6.444.763 4.764 4.407-1.265 6.364 5.663-3.169z"/>
    </symbol>
    <symbol id="icon-user" viewBox="0 0 32 32">
      <path d="M5.333 29.333a10.666 10.666 0 0 1 21.333 0h-2.667a8.002 8.002 0 0 0-8-8 8 8 0 0 0-8 8H5.332zM16 17.334c-4.42 0-8-3.58-8-8s3.58-8 8-8 8 3.58 8 8-3.58 8-8 8zm0-2.667c2.947 0 5.333-2.387 5.333-5.333S18.946 4.001 16 4.001c-2.947 0-5.333 2.387-5.333 5.333s2.387 5.333 5.333 5.333z"/>
    </symbol>
    <symbol id="icon-logo" viewBox="0 0 78 32">
      <path fill="#fff" d="M.043 21.536c.484-.384.704-.562.661-.533 1.394-1.152 2.489-2.098 3.285-2.837.811-.74 1.493-1.515 2.048-2.325s.832-1.6.832-2.368c0-.583-.135-1.038-.405-1.365s-.676-.491-1.216-.491c-.54 0-.967.206-1.28.619-.299.398-.448.967-.448 1.707H0c.028-1.209.284-2.219.768-3.029.498-.811 1.145-1.408 1.941-1.792.811-.384 1.707-.576 2.688-.576 1.692 0 2.965.434 3.819 1.301.868.868 1.301 1.998 1.301 3.392 0 1.522-.519 2.937-1.557 4.245-1.038 1.294-2.361 2.56-3.968 3.797h5.76v2.965H.043v-2.709zM16.369 14.539a4.718 4.718 0 0 1 1.6-1.536 4.067 4.067 0 0 1 2.133-.576v3.861h-1.003c-.91 0-1.593.199-2.048.597-.455.384-.683 1.067-.683 2.048v5.525H12.72V12.554h3.648v1.984zM23.681 11.317c-.64 0-1.166-.185-1.579-.555a1.881 1.881 0 0 1-.597-1.408c0-.569.199-1.038.597-1.408.412-.384.939-.576 1.579-.576.626 0 1.138.192 1.536.576.412.37.619.839.619 1.408 0 .555-.206 1.024-.619 1.408-.398.37-.91.555-1.536.555zm1.813 1.238v11.904h-3.648V12.555h3.648zM32.98 24.629c-1.038 0-1.963-.178-2.773-.533s-1.451-.839-1.92-1.451a3.904 3.904 0 0 1-.789-2.091h3.605c.043.412.235.747.576 1.003s.761.384 1.259.384c.455 0 .804-.085 1.045-.256.256-.185.384-.42.384-.704 0-.341-.178-.59-.533-.747-.356-.171-.932-.356-1.728-.555-.853-.199-1.564-.405-2.133-.619a3.833 3.833 0 0 1-1.472-1.045c-.412-.484-.619-1.131-.619-1.941 0-.683.185-1.301.555-1.856.384-.569.939-1.017 1.664-1.344.74-.327 1.614-.491 2.624-.491 1.493 0 2.667.37 3.52 1.109.868.74 1.365 1.721 1.493 2.944h-3.371a1.437 1.437 0 0 0-.555-.981c-.299-.242-.697-.363-1.195-.363-.427 0-.754.085-.981.256a.755.755 0 0 0-.341.661c0 .341.178.597.533.768.37.171.939.341 1.707.512.882.228 1.6.455 2.155.683a3.504 3.504 0 0 1 1.451 1.067c.427.484.647 1.138.661 1.963 0 .697-.199 1.323-.597 1.877-.384.54-.946.967-1.685 1.28-.725.313-1.572.469-2.539.469zM55.223 12.427c1.479 0 2.652.448 3.52 1.344.882.896 1.323 2.14 1.323 3.733v6.955h-3.627v-6.464c0-.768-.206-1.358-.619-1.771-.398-.427-.953-.64-1.664-.64s-1.273.213-1.685.64c-.398.412-.597 1.003-.597 1.771v6.464h-3.627v-6.464c0-.768-.206-1.358-.619-1.771-.398-.427-.953-.64-1.664-.64s-1.273.213-1.685.64c-.398.412-.597 1.003-.597 1.771v6.464h-3.648V12.555h3.648v1.493c.37-.498.853-.889 1.451-1.173.597-.299 1.273-.448 2.027-.448.896 0 1.692.192 2.389.576a4.112 4.112 0 0 1 1.664 1.643c.412-.654.974-1.188 1.685-1.6s1.486-.619 2.325-.619z" style="fill:var(--color1, #fff)"/>
      <path fill="#7b61ff" d="M64.774 5.78c-.309-.103-.312-.27.006-.376l11.311-3.77c.313-.104.493.071.405.378l-3.232 11.31c-.089.313-.27.324-.402.027l-2.13-4.793 3.556-4.741-4.741 3.556-4.773-1.591z" style="fill:var(--color2, #7b61ff)"/>
    </symbol>
    <symbol id="icon-calendar" viewBox="0 0 33 32">
      <path d="M23.556 4h5.333a1.335 1.335 0 0 1 1.334 1.334v21.333a1.334 1.334 0 0 1-1.334 1.334h-24a1.334 1.334 0 0 1-1.334-1.334V5.334A1.335 1.335 0 0 1 4.889 4h5.333V1.333h2.667V4h8V1.333h2.667V4zM6.222 12v13.333h21.333V12H6.222zm2.667 5.333h6.667v5.333H8.889v-5.333z"/>
    </symbol>
    <symbol id="icon-location" viewBox="0 0 32 32">
      <path d="m16 27.867 6.6-6.6a9.331 9.331 0 0 0-1.415-14.36 9.33 9.33 0 0 0-10.37 0 9.337 9.337 0 0 0-3.969 9.581A9.34 9.34 0 0 0 9.4 21.267l6.6 6.6zm0 3.77-8.485-8.485A11.999 11.999 0 0 1 22.668 4.69a11.993 11.993 0 0 1 1.819 18.462l-8.485 8.485zm0-14.304a2.67 2.67 0 0 0 2.667-2.667A2.668 2.668 0 1 0 16 17.333zM16 20a5.332 5.332 0 1 1 0-10.665A5.332 5.332 0 0 1 16 20z"/>
    </symbol>
    <symbol id="icon-riding" viewBox="0 0 32 32">
      <path d="M7.333 28a5.99 5.99 0 0 1-4.243-1.758 6.01 6.01 0 0 1-1.758-4.243 5.99 5.99 0 0 1 1.758-4.243 5.995 5.995 0 0 1 4.243-1.758 5.996 5.996 0 0 1 6 6 5.996 5.996 0 0 1-6 6zm0-2.667a3.333 3.333 0 1 0 0-6.667 3.333 3.333 0 0 0 0 6.667zM24.667 28a5.99 5.99 0 0 1-4.243-1.758 6.01 6.01 0 0 1-1.758-4.243 5.99 5.99 0 0 1 1.758-4.243 5.995 5.995 0 0 1 4.243-1.758 5.996 5.996 0 0 1 6 6 5.996 5.996 0 0 1-6 6zm0-2.667a3.333 3.333 0 1 0 0-6.667 3.333 3.333 0 0 0 0 6.667zm-9.97-11.593L17.333 16v8h-2.667v-6.667l-3.625-3.021a2.671 2.671 0 0 1-.997-3.105c.133-.368.346-.702.623-.979l3.771-3.771a2.67 2.67 0 0 1 3.772 0l1.885 1.885a9.289 9.289 0 0 0 5.223 2.633l-.013 2.687a11.95 11.95 0 0 1-7.095-3.433l-3.512 3.511zm6.636-7.073A2.67 2.67 0 0 1 18.666 4a2.668 2.668 0 1 1 2.667 2.667z"/>
    </symbol>
    <symbol id="icon-logo-dark" viewBox="0 0 78 32">
      <path fill="#161414" d="M.043 21.276c.484-.384.704-.562.661-.533 1.394-1.152 2.489-2.098 3.285-2.837.811-.74 1.493-1.515 2.048-2.325s.832-1.6.832-2.368c0-.583-.135-1.038-.405-1.365s-.676-.491-1.216-.491c-.54 0-.967.206-1.28.619-.299.398-.448.967-.448 1.707H0c.028-1.209.284-2.219.768-3.029.498-.811 1.145-1.408 1.941-1.792.811-.384 1.707-.576 2.688-.576 1.692 0 2.965.434 3.819 1.301.868.868 1.301 1.998 1.301 3.392 0 1.522-.519 2.937-1.557 4.245-1.038 1.294-2.361 2.56-3.968 3.797h5.76v2.965H.043v-2.709zM16.369 14.279a4.718 4.718 0 0 1 1.6-1.536 4.067 4.067 0 0 1 2.133-.576v3.861h-1.003c-.91 0-1.593.199-2.048.597-.455.384-.683 1.067-.683 2.048v5.525H12.72V12.294h3.648v1.984zM23.681 11.058c-.64 0-1.166-.185-1.579-.555a1.881 1.881 0 0 1-.597-1.408c0-.569.199-1.038.597-1.408.412-.384.939-.576 1.579-.576.626 0 1.138.192 1.536.576.412.37.619.839.619 1.408 0 .555-.206 1.024-.619 1.408-.398.37-.91.555-1.536.555zm1.813 1.237v11.904h-3.648V12.295h3.648zM32.98 24.37c-1.038 0-1.963-.178-2.773-.533s-1.451-.839-1.92-1.451a3.904 3.904 0 0 1-.789-2.091h3.605c.043.412.235.747.576 1.003s.761.384 1.259.384c.455 0 .804-.085 1.045-.256.256-.185.384-.42.384-.704 0-.341-.178-.59-.533-.747-.356-.171-.932-.356-1.728-.555-.853-.199-1.564-.405-2.133-.619a3.833 3.833 0 0 1-1.472-1.045c-.412-.484-.619-1.131-.619-1.941 0-.683.185-1.301.555-1.856.384-.569.939-1.017 1.664-1.344.74-.327 1.614-.491 2.624-.491 1.493 0 2.667.37 3.52 1.109.868.74 1.365 1.721 1.493 2.944h-3.371a1.437 1.437 0 0 0-.555-.981c-.299-.242-.697-.363-1.195-.363-.427 0-.754.085-.981.256a.755.755 0 0 0-.341.661c0 .341.178.597.533.768.37.171.939.341 1.707.512.882.228 1.6.455 2.155.683a3.504 3.504 0 0 1 1.451 1.067c.427.484.647 1.138.661 1.963 0 .697-.199 1.323-.597 1.877-.384.54-.946.967-1.685 1.28-.725.313-1.572.469-2.539.469zM55.223 12.167c1.479 0 2.652.448 3.52 1.344.882.896 1.323 2.14 1.323 3.733v6.955h-3.627v-6.464c0-.768-.206-1.358-.619-1.771-.398-.427-.953-.64-1.664-.64s-1.273.213-1.685.64c-.398.412-.597 1.003-.597 1.771v6.464h-3.627v-6.464c0-.768-.206-1.358-.619-1.771-.398-.427-.953-.64-1.664-.64s-1.273.213-1.685.64c-.398.412-.597 1.003-.597 1.771v6.464h-3.648V12.295h3.648v1.493c.37-.498.853-.889 1.451-1.173.597-.299 1.273-.448 2.027-.448.896 0 1.692.192 2.389.576a4.112 4.112 0 0 1 1.664 1.643c.412-.654.974-1.188 1.685-1.6s1.486-.619 2.325-.619z" style="fill:var(--color3, #161414)"/>
      <path fill="#7b61ff" d="M64.774 5.52c-.309-.103-.312-.27.006-.376l11.311-3.77c.313-.104.493.071.405.378l-3.232 11.31c-.089.313-.27.324-.402.027l-2.13-4.793 3.556-4.741-4.741 3.556-4.773-1.591z" style="fill:var(--color2, #7b61ff)"/>
    </symbol>
    <symbol id="icon-arrow-btn" viewBox="0 0 32 32">
      <path d="M16 17.333H5.333v-2.667H16V5.333L26.667 16 16 26.667v-9.333z"/>
    </symbol>
    <symbol id="icon-mail" viewBox="0 0 32 32">
      <path d="M4 4h24a1.335 1.335 0 0 1 1.334 1.334v21.333A1.334 1.334 0 0 1 28 28.001H4a1.334 1.334 0 0 1-1.334-1.334V5.334A1.335 1.335 0 0 1 4 4zm22.667 5.651-10.571 9.467L5.333 9.622v15.712h21.333V9.651zM6.015 6.667l10.067 8.883 9.921-8.883H6.015z"/>
    </symbol>
  </defs>
</svg>
